{"asset":{"version":"2.0","generator":"THREE.GLTFExporter"},"scenes":[{"nodes":[0]}],"scene":0,"nodes":[{"mesh":0}],"bufferViews":[{"buffer":0,"byteOffset":0,"byteLength":1728,"target":34962,"byteStride":12},{"buffer":0,"byteOffset":1728,"byteLength":288,"target":34963}],"buffers":[{"byteLength":2016,"uri":"data:application/octet-stream;base64,"}],"accessors":[{"bufferView":0,"componentType":5126,"count":144,"max":[7.568341255187988,0.19999873638153076,5.598550796508789],"min":[-3.03165864944458,0.19999873638153076,-3.601449489593506],"type":"VEC3"},{"bufferView":1,"componentType":5123,"count":144,"max":[143],"min":[0],"type":"SCALAR"}],"materials":[{"pbrMetallicRoughness":{"metallicFactor":0,"roughnessFactor":1}}],"meshes":[{"primitives":[{"mode":4,"attributes":{"POSITION":0},"indices":1,"material":0}]}]}